<svg xmlns="http://www.w3.org/2000/svg" xmlns:xlink="http://www.w3.org/1999/xlink" xmlns:lucid="lucid" width="762" height="742"><g transform="translate(241 -3179)" lucid:page-tab-id="w9VbIEe2bkIW"><path d="M-500 3000h1500v1000H-500z" fill="#fff"/><path d="M-240 3236.66h760V3920h-760z" stroke="#282c33" stroke-width="2" fill-opacity="0"/><path d="M-240 3180h760v56.66h-760z" stroke="#282c33" stroke-width="2" fill="#3a414a"/><use xlink:href="#a" transform="matrix(1,0,0,1,-228,3192) translate(291.1111111111111 21.333333333333336)"/><use xlink:href="#b" transform="matrix(1,0,0,1,-228,3192) translate(393.25925925925924 21.333333333333336)"/><path d="M-180 3314h282v80h-282z" stroke="#000" stroke-width="2" fill="#dedeff"/><use xlink:href="#c" transform="matrix(1,0,0,1,-175,3319) translate(88.91666666666669 40.0625)"/><path d="M-181 3459H99v80h-280z" stroke="#000" stroke-width="2" fill="#dedeff"/><use xlink:href="#d" transform="matrix(1,0,0,1,-176.00000000000045,3464) translate(46.277777777777786 40.0625)"/><path d="M114.5 3499h55" stroke="#1071e5" fill="none"/><path d="M101 3499l13-7.5v15zM183 3499l-13 7.5v-15z" stroke="#1071e5" fill="#1071e5"/><path d="M185 3459h276v80H185z" stroke="#000" stroke-width="2" fill="#ffdda6"/><use xlink:href="#e" transform="matrix(1,0,0,1,190,3464) translate(35.416666666666686 40.0625)"/><path d="M-41 3409.5v34" stroke="#1071e5" fill="none"/><path d="M-41 3396l7.5 13h-15zM-41 3457l-7.5-13h15z" stroke="#1071e5" fill="#1071e5"/><path d="M147.25 3252.47h159v38.4h-159z" stroke="#000" stroke-opacity="0" stroke-width="2" fill="#fff" fill-opacity="0"/><use xlink:href="#f" transform="matrix(1,0,0,1,152.24999999999977,3257.466666666667) translate(7.339506172839506 19.59027777777778)"/><use xlink:href="#g" transform="matrix(1,0,0,1,152.24999999999977,3257.466666666667) translate(59.129629629629626 19.59027777777778)"/><path d="M-20 3240h167.25v63.33H-20z" stroke="#000" stroke-opacity="0" stroke-width="2" fill="#fff" fill-opacity="0"/><use xlink:href="#h" transform="matrix(1,0,0,1,-14.999999999999957,3245) translate(14.895061728395063 31.27777777777778)"/><use xlink:href="#g" transform="matrix(1,0,0,1,-14.999999999999957,3245) translate(60.574074074074076 31.27777777777778)"/><g fill="none"><path d="M143 3250v670"/><path d="M143 3250v10.15m0 10.15v20.3m0 10.16v20.3m0 10.15v20.32m0 10.15v20.3m0 10.15v20.3m0 10.16v20.3m0 10.15v20.3m0 10.15v20.3m0 10.16v20.3m0 10.15v20.3m0 10.15v20.3m0 10.15v20.3m0 10.16v20.3m0 10.15v20.3m0 10.17v20.3m0 10.15v20.3m0 10.16v20.3m0 10.15v20.3m0 10.15v20.3m0 10.16v20.3m0 10.15v20.3m0 10.15V3920" stroke="#6f7681" stroke-width="2"/></g><path d="M186 3653h276v80H186z" stroke="#000" stroke-width="2" fill="#ffdda6"/><use xlink:href="#i" transform="matrix(1,0,0,1,191.00000000000045,3658) translate(30.388888888888886 40.0625)"/><path d="M324 3554.5v83" stroke="#1071e5" fill="none"/><path d="M324 3541l7.5 13h-15zM324 3651l-7.5-13h15z" stroke="#1071e5" fill="#1071e5"/><path d="M-180 3799.27h280v80h-280z" stroke="#000" stroke-width="2" fill="#dedeff"/><use xlink:href="#j" transform="matrix(1,0,0,1,-175,3804.2670945645477) translate(38.027777777777786 40.0625)"/><path d="M-40 3749.35v34.43" stroke="#1071e5" fill="none"/><path d="M-40 3735.86l7.5 13h-15zM-40 3797.27l-7.5-13h15z" stroke="#1071e5" fill="#1071e5"/><path d="M-180 3653.86h280v80h-280z" stroke="#000" stroke-width="2" fill="#dedeff"/><use xlink:href="#k" transform="matrix(1,0,0,1,-175,3658.858887717969) translate(-1.305555555555543 39)"/><path d="M186 3799.27h276v80H186z" stroke="#000" stroke-width="2" fill="#ffdda6"/><use xlink:href="#l" transform="matrix(1,0,0,1,191.00000000000045,3804.2670945645477) translate(69.72222222222221 40.0625)"/><path d="M253.66 3554.5v35.93a6 6 0 0 1-6 6H-34a6 6 0 0 0-6 6v35.94" stroke="#1071e5" fill="none"/><path d="M253.66 3541l7.5 13h-15zM-40 3651.86l-7.5-13h15z" stroke="#1071e5" fill="#1071e5"/><path d="M324 3748.5v35.28" stroke="#1071e5" fill="none"/><path d="M324 3735l7.5 13h-15zM324 3797.27l-7.5-13h15z" stroke="#1071e5" fill="#1071e5"/><defs><path fill="#fff" d="M169-182c-1-43-94-46-97-3 18 66 151 10 154 114 3 95-165 93-204 36-6-8-10-19-12-30l50-8c3 46 112 56 116 5-17-69-150-10-154-114-4-87 153-88 188-35 5 8 8 18 10 28" id="m"/><path fill="#fff" d="M133-34C117-15 103 5 69 4 32 3 11-16 11-54c-1-60 55-63 116-61 1-26-3-47-28-47-18 1-26 9-28 27l-52-2c7-38 36-58 82-57s74 22 75 68l1 82c-1 14 12 18 25 15v27c-30 8-71 5-69-32zm-48 3c29 0 43-24 42-57-32 0-66-3-65 30 0 17 8 27 23 27" id="n"/><path fill="#fff" d="M220-157c-53 9-28 100-34 157h-49v-107c1-27-5-49-29-50C55-147 81-57 75 0H25l-1-190h47c2 12-1 28 3 38 10-53 101-56 108 0 13-22 24-43 59-42 82 1 51 116 57 194h-49v-107c-1-25-5-48-29-50" id="o"/><path fill="#fff" d="M135-194c53 0 70 44 70 98 0 56-19 98-73 100-31 1-45-17-59-34 3 33 2 69 2 105H25l-1-265h48c2 10 0 23 3 31 11-24 29-35 60-35zM114-30c33 0 39-31 40-66 0-38-9-64-40-64-56 0-55 130 0 130" id="p"/><path fill="#fff" d="M25 0v-261h50V0H25" id="q"/><path fill="#fff" d="M185-48c-13 30-37 53-82 52C43 2 14-33 14-96s30-98 90-98c62 0 83 45 84 108H66c0 31 8 55 39 56 18 0 30-7 34-22zm-45-69c5-46-57-63-70-21-2 6-4 13-4 21h74" id="r"/><g id="a"><use transform="matrix(0.07407407407407408,0,0,0.07407407407407408,0,0)" xlink:href="#m"/><use transform="matrix(0.07407407407407408,0,0,0.07407407407407408,17.77777777777778,0)" xlink:href="#n"/><use transform="matrix(0.07407407407407408,0,0,0.07407407407407408,32.592592592592595,0)" xlink:href="#o"/><use transform="matrix(0.07407407407407408,0,0,0.07407407407407408,56.296296296296305,0)" xlink:href="#p"/><use transform="matrix(0.07407407407407408,0,0,0.07407407407407408,72.51851851851853,0)" xlink:href="#q"/><use transform="matrix(0.07407407407407408,0,0,0.07407407407407408,79.92592592592594,0)" xlink:href="#r"/></g><path fill="#fff" d="M199 0l-22-63H83L61 0H9l90-248h61L250 0h-51zm-33-102l-36-108c-10 38-24 72-36 108h72" id="s"/><g id="b"><use transform="matrix(0.07407407407407408,0,0,0.07407407407407408,0,0)" xlink:href="#s"/><use transform="matrix(0.07407407407407408,0,0,0.07407407407407408,19.185185185185187,0)" xlink:href="#p"/><use transform="matrix(0.07407407407407408,0,0,0.07407407407407408,35.40740740740741,0)" xlink:href="#p"/></g><path fill="#3a414a" d="M190-63c-7 42-38 67-86 67-59 0-84-38-90-98-12-110 154-137 174-36l-49 2c-2-19-15-32-35-32-30 0-35 28-38 64-6 74 65 87 74 30" id="t"/><path fill="#3a414a" d="M25 0v-261h50V0H25" id="u"/><path fill="#3a414a" d="M25-224v-37h50v37H25zM25 0v-190h50V0H25" id="v"/><path fill="#3a414a" d="M185-48c-13 30-37 53-82 52C43 2 14-33 14-96s30-98 90-98c62 0 83 45 84 108H66c0 31 8 55 39 56 18 0 30-7 34-22zm-45-69c5-46-57-63-70-21-2 6-4 13-4 21h74" id="w"/><path fill="#3a414a" d="M135-194c87-1 58 113 63 194h-50c-7-57 23-157-34-157-59 0-34 97-39 157H25l-1-190h47c2 12-1 28 3 38 12-26 28-41 61-42" id="x"/><path fill="#3a414a" d="M115-3C79 11 28 4 28-45v-112H4v-33h27l15-45h31v45h36v33H77v99c-1 23 16 31 38 25v30" id="y"/><path fill="#3a414a" d="M14-72v-43h91v43H14" id="z"/><path fill="#3a414a" d="M133-34C117-15 103 5 69 4 32 3 11-16 11-54c-1-60 55-63 116-61 1-26-3-47-28-47-18 1-26 9-28 27l-52-2c7-38 36-58 82-57s74 22 75 68l1 82c-1 14 12 18 25 15v27c-30 8-71 5-69-32zm-48 3c29 0 43-24 42-57-32 0-66-3-65 30 0 17 8 27 23 27" id="A"/><path fill="#3a414a" d="M135-194c53 0 70 44 70 98 0 56-19 98-73 100-31 1-45-17-59-34 3 33 2 69 2 105H25l-1-265h48c2 10 0 23 3 31 11-24 29-35 60-35zM114-30c33 0 39-31 40-66 0-38-9-64-40-64-56 0-55 130 0 130" id="B"/><g id="c"><use transform="matrix(0.055555555555555546,0,0,0.055555555555555546,0,0)" xlink:href="#t"/><use transform="matrix(0.055555555555555546,0,0,0.055555555555555546,11.111111111111109,0)" xlink:href="#u"/><use transform="matrix(0.055555555555555546,0,0,0.055555555555555546,16.666666666666664,0)" xlink:href="#v"/><use transform="matrix(0.055555555555555546,0,0,0.055555555555555546,22.222222222222218,0)" xlink:href="#w"/><use transform="matrix(0.055555555555555546,0,0,0.055555555555555546,33.33333333333333,0)" xlink:href="#x"/><use transform="matrix(0.055555555555555546,0,0,0.055555555555555546,45.49999999999999,0)" xlink:href="#y"/><use transform="matrix(0.055555555555555546,0,0,0.055555555555555546,52.1111111111111,0)" xlink:href="#z"/><use transform="matrix(0.055555555555555546,0,0,0.055555555555555546,58.722222222222214,0)" xlink:href="#A"/><use transform="matrix(0.055555555555555546,0,0,0.055555555555555546,69.83333333333331,0)" xlink:href="#B"/><use transform="matrix(0.055555555555555546,0,0,0.055555555555555546,81.99999999999997,0)" xlink:href="#B"/></g><path fill="#3a414a" d="M135-150c-39-12-60 13-60 57V0H25l-1-190h47c2 13-1 29 3 40 6-28 27-53 61-41v41" id="C"/><path fill="#3a414a" d="M85 4C-2 5 27-109 22-190h50c7 57-23 150 33 157 60-5 35-97 40-157h50l1 190h-47c-2-12 1-28-3-38-12 25-28 42-61 42" id="D"/><path fill="#3a414a" d="M220-157c-53 9-28 100-34 157h-49v-107c1-27-5-49-29-50C55-147 81-57 75 0H25l-1-190h47c2 12-1 28 3 38 10-53 101-56 108 0 13-22 24-43 59-42 82 1 51 116 57 194h-49v-107c-1-25-5-48-29-50" id="E"/><path fill="#3a414a" d="M231 0h-52l-39-155L100 0H48L-1-190h46L77-45c9-52 24-97 36-145h53l37 145 32-145h46" id="F"/><path fill="#3a414a" d="M137-138c1-29-70-34-71-4 15 46 118 7 119 86 1 83-164 76-172 9l43-7c4 19 20 25 44 25 33 8 57-30 24-41C81-84 22-81 20-136c-2-80 154-74 161-7" id="G"/><path fill="#3a414a" d="M88-194c31-1 46 15 58 34l-1-101h50l1 261h-48c-2-10 0-23-3-31C134-8 116 4 84 4 32 4 16-41 15-95c0-56 19-97 73-99zm17 164c33 0 40-30 41-66 1-37-9-64-41-64s-38 30-39 65c0 43 13 65 39 65" id="H"/><path fill="#3a414a" d="M147 0L96-86 75-71V0H25v-261h50v150l67-79h53l-66 74L201 0h-54" id="I"/><g id="d"><use transform="matrix(0.055555555555555546,0,0,0.055555555555555546,0,0)" xlink:href="#C"/><use transform="matrix(0.055555555555555546,0,0,0.055555555555555546,7.777777777777777,0)" xlink:href="#D"/><use transform="matrix(0.055555555555555546,0,0,0.055555555555555546,19.944444444444443,0)" xlink:href="#x"/><use transform="matrix(0.055555555555555546,0,0,0.055555555555555546,32.11111111111111,0)" xlink:href="#y"/><use transform="matrix(0.055555555555555546,0,0,0.055555555555555546,38.722222222222214,0)" xlink:href="#v"/><use transform="matrix(0.055555555555555546,0,0,0.055555555555555546,44.27777777777777,0)" xlink:href="#E"/><use transform="matrix(0.055555555555555546,0,0,0.055555555555555546,62.05555555555554,0)" xlink:href="#w"/><use transform="matrix(0.055555555555555546,0,0,0.055555555555555546,73.16666666666666,0)" xlink:href="#z"/><use transform="matrix(0.055555555555555546,0,0,0.055555555555555546,79.77777777777777,0)" xlink:href="#A"/><use transform="matrix(0.055555555555555546,0,0,0.055555555555555546,90.88888888888889,0)" xlink:href="#F"/><use transform="matrix(0.055555555555555546,0,0,0.055555555555555546,106.44444444444444,0)" xlink:href="#A"/><use transform="matrix(0.055555555555555546,0,0,0.055555555555555546,117.55555555555556,0)" xlink:href="#C"/><use transform="matrix(0.055555555555555546,0,0,0.055555555555555546,125.33333333333334,0)" xlink:href="#w"/><use transform="matrix(0.055555555555555546,0,0,0.055555555555555546,136.44444444444443,0)" xlink:href="#z"/><use transform="matrix(0.055555555555555546,0,0,0.055555555555555546,143.05555555555554,0)" xlink:href="#G"/><use transform="matrix(0.055555555555555546,0,0,0.055555555555555546,154.16666666666666,0)" xlink:href="#H"/><use transform="matrix(0.055555555555555546,0,0,0.055555555555555546,166.33333333333331,0)" xlink:href="#I"/></g><path fill="#3a414a" d="M135-194c52 0 70 43 70 98 0 56-19 99-73 100-30 1-46-15-58-35L72 0H24l1-261h50v104c11-23 29-37 60-37zM114-30c31 0 40-27 40-66 0-37-7-63-39-63s-41 28-41 65c0 36 8 64 40 64" id="J"/><g id="e"><use transform="matrix(0.055555555555555546,0,0,0.055555555555555546,0,0)" xlink:href="#C"/><use transform="matrix(0.055555555555555546,0,0,0.055555555555555546,7.777777777777777,0)" xlink:href="#D"/><use transform="matrix(0.055555555555555546,0,0,0.055555555555555546,19.944444444444443,0)" xlink:href="#x"/><use transform="matrix(0.055555555555555546,0,0,0.055555555555555546,32.11111111111111,0)" xlink:href="#y"/><use transform="matrix(0.055555555555555546,0,0,0.055555555555555546,38.722222222222214,0)" xlink:href="#v"/><use transform="matrix(0.055555555555555546,0,0,0.055555555555555546,44.27777777777777,0)" xlink:href="#E"/><use transform="matrix(0.055555555555555546,0,0,0.055555555555555546,62.05555555555554,0)" xlink:href="#w"/><use transform="matrix(0.055555555555555546,0,0,0.055555555555555546,73.16666666666666,0)" xlink:href="#z"/><use transform="matrix(0.055555555555555546,0,0,0.055555555555555546,79.77777777777777,0)" xlink:href="#w"/><use transform="matrix(0.055555555555555546,0,0,0.055555555555555546,90.88888888888889,0)" xlink:href="#x"/><use transform="matrix(0.055555555555555546,0,0,0.055555555555555546,103.05555555555554,0)" xlink:href="#A"/><use transform="matrix(0.055555555555555546,0,0,0.055555555555555546,114.16666666666664,0)" xlink:href="#J"/><use transform="matrix(0.055555555555555546,0,0,0.055555555555555546,126.33333333333331,0)" xlink:href="#u"/><use transform="matrix(0.055555555555555546,0,0,0.055555555555555546,131.88888888888886,0)" xlink:href="#w"/><use transform="matrix(0.055555555555555546,0,0,0.055555555555555546,142.99999999999997,0)" xlink:href="#H"/><use transform="matrix(0.055555555555555546,0,0,0.055555555555555546,155.16666666666663,0)" xlink:href="#z"/><use transform="matrix(0.055555555555555546,0,0,0.055555555555555546,161.77777777777774,0)" xlink:href="#G"/><use transform="matrix(0.055555555555555546,0,0,0.055555555555555546,172.88888888888886,0)" xlink:href="#H"/><use transform="matrix(0.055555555555555546,0,0,0.055555555555555546,185.05555555555551,0)" xlink:href="#I"/></g><path fill="#3a414a" d="M194-120c59 52 2 134-86 124-53-6-90-18-98-63l31-7c8 30 29 43 70 43 46 0 84-17 71-62-32-43-135-20-137-98-3-89 178-90 191-16l-30 9c-8-48-127-53-127 5 0 53 81 35 115 65" id="K"/><path fill="#3a414a" d="M248-139C247-14 144 9 11 0l48-248c105-6 190 8 189 109zm-34 0c1-70-52-87-126-82L50-27c98 7 163-21 164-112" id="L"/><path fill="#3a414a" d="M180 0L97-118 63-96 45 0H11l48-248h34L69-126c44-43 94-81 141-122h43L121-137 219 0h-39" id="M"/><g id="f"><use transform="matrix(0.06172839506172839,0,0,0.06172839506172839,0,0)" xlink:href="#K"/><use transform="matrix(0.06172839506172839,0,0,0.06172839506172839,14.814814814814813,0)" xlink:href="#L"/><use transform="matrix(0.06172839506172839,0,0,0.06172839506172839,30.80246913580247,0)" xlink:href="#M"/></g><path fill="#3a414a" d="M249-183c0 48-29 72-75 77L221 0h-36l-43-103H65L45 0H11l48-248c83 2 190-17 190 65zm-34 3c0-55-74-39-127-41l-18 92c63-1 145 13 145-51" id="N"/><path fill="#3a414a" d="M67 3c-93-2-31-127-26-193h32L48-50c-3 39 53 32 70 12 30-34 30-101 43-152h32L157 0h-30c1-10 6-24 4-33-14 20-29 37-64 36" id="O"/><path fill="#3a414a" d="M67-158c22-48 132-52 116 29L158 0h-32l25-140c3-38-53-32-70-12C52-117 51-52 38 0H6l36-190h30" id="P"/><path fill="#3a414a" d="M51-54c-9 22 5 41 31 30L79-1C43 14 10-4 19-52l22-115H19l5-23h22l19-43h21l-9 43h35l-4 23H73" id="Q"/><path fill="#3a414a" d="M50-231l6-30h32l-6 30H50zM6 0l37-190h31L37 0H6" id="R"/><path fill="#3a414a" d="M248-111c6-24 9-61-24-58-72 9-57 108-77 169h-31l26-142c3-37-50-30-64-10C52-115 50-51 37 0H6l36-190h30c-1 10-6 24-4 32 13-43 101-52 105 5 13-22 29-41 61-41 90 0 28 129 23 194h-31" id="S"/><path fill="#3a414a" d="M111-194c62-3 86 47 72 106H45c-7 38 6 69 45 68 27-1 43-14 53-32l24 11C152-15 129 4 87 4 38 3 12-23 12-71c0-70 32-119 99-123zm44 81c14-66-71-72-95-28-4 8-8 17-11 28h106" id="T"/><g id="g"><use transform="matrix(0.06172839506172839,0,0,0.06172839506172839,0,0)" xlink:href="#N"/><use transform="matrix(0.06172839506172839,0,0,0.06172839506172839,15.987654320987653,0)" xlink:href="#O"/><use transform="matrix(0.06172839506172839,0,0,0.06172839506172839,28.333333333333332,0)" xlink:href="#P"/><use transform="matrix(0.06172839506172839,0,0,0.06172839506172839,40.67901234567901,0)" xlink:href="#Q"/><use transform="matrix(0.06172839506172839,0,0,0.06172839506172839,46.851851851851855,0)" xlink:href="#R"/><use transform="matrix(0.06172839506172839,0,0,0.06172839506172839,51.7283950617284,0)" xlink:href="#S"/><use transform="matrix(0.06172839506172839,0,0,0.06172839506172839,70.18518518518519,0)" xlink:href="#T"/></g><path fill="#3a414a" d="M187 0l-14-72H61L19 0h-37l149-248h38L221 0h-34zm-19-99l-22-123L76-99h92" id="U"/><path fill="#3a414a" d="M67-162c32-53 139-36 121 50C175-51 163 2 97 4 68 4 52-11 42-31 38 6 28 39 22 75H-9l50-265h29c-1 10 0 20-3 28zm89 36c0-26-10-43-35-43-54 0-67 50-69 103-1 29 14 45 42 46 53 0 62-58 62-106" id="V"/><g id="h"><use transform="matrix(0.06172839506172839,0,0,0.06172839506172839,0,0)" xlink:href="#U"/><use transform="matrix(0.06172839506172839,0,0,0.06172839506172839,14.814814814814813,0)" xlink:href="#V"/><use transform="matrix(0.06172839506172839,0,0,0.06172839506172839,27.160493827160494,0)" xlink:href="#V"/></g><g id="i"><use transform="matrix(0.055555555555555546,0,0,0.055555555555555546,0,0)" xlink:href="#E"/><use transform="matrix(0.055555555555555546,0,0,0.055555555555555546,17.777777777777775,0)" xlink:href="#w"/><use transform="matrix(0.055555555555555546,0,0,0.055555555555555546,28.888888888888882,0)" xlink:href="#H"/><use transform="matrix(0.055555555555555546,0,0,0.055555555555555546,41.05555555555555,0)" xlink:href="#v"/><use transform="matrix(0.055555555555555546,0,0,0.055555555555555546,46.61111111111111,0)" xlink:href="#A"/><use transform="matrix(0.055555555555555546,0,0,0.055555555555555546,57.722222222222214,0)" xlink:href="#y"/><use transform="matrix(0.055555555555555546,0,0,0.055555555555555546,64.33333333333333,0)" xlink:href="#w"/><use transform="matrix(0.055555555555555546,0,0,0.055555555555555546,75.44444444444444,0)" xlink:href="#w"/><use transform="matrix(0.055555555555555546,0,0,0.055555555555555546,86.55555555555556,0)" xlink:href="#z"/><use transform="matrix(0.055555555555555546,0,0,0.055555555555555546,93.16666666666667,0)" xlink:href="#G"/><use transform="matrix(0.055555555555555546,0,0,0.055555555555555546,104.27777777777779,0)" xlink:href="#H"/><use transform="matrix(0.055555555555555546,0,0,0.055555555555555546,116.44444444444444,0)" xlink:href="#I"/><use transform="matrix(0.055555555555555546,0,0,0.055555555555555546,127.55555555555559,0)" xlink:href="#z"/><use transform="matrix(0.055555555555555546,0,0,0.055555555555555546,134.16666666666669,0)" xlink:href="#A"/><use transform="matrix(0.055555555555555546,0,0,0.055555555555555546,145.2777777777778,0)" xlink:href="#H"/><use transform="matrix(0.055555555555555546,0,0,0.055555555555555546,157.44444444444446,0)" xlink:href="#A"/><use transform="matrix(0.055555555555555546,0,0,0.055555555555555546,168.55555555555557,0)" xlink:href="#B"/><use transform="matrix(0.055555555555555546,0,0,0.055555555555555546,180.72222222222223,0)" xlink:href="#y"/><use transform="matrix(0.055555555555555546,0,0,0.055555555555555546,187.33333333333334,0)" xlink:href="#w"/><use transform="matrix(0.055555555555555546,0,0,0.055555555555555546,198.44444444444446,0)" xlink:href="#C"/></g><g id="j"><use transform="matrix(0.055555555555555546,0,0,0.055555555555555546,0,0)" xlink:href="#v"/><use transform="matrix(0.055555555555555546,0,0,0.055555555555555546,5.5555555555555545,0)" xlink:href="#x"/><use transform="matrix(0.055555555555555546,0,0,0.055555555555555546,17.722222222222218,0)" xlink:href="#z"/><use transform="matrix(0.055555555555555546,0,0,0.055555555555555546,24.33333333333333,0)" xlink:href="#A"/><use transform="matrix(0.055555555555555546,0,0,0.055555555555555546,35.444444444444436,0)" xlink:href="#B"/><use transform="matrix(0.055555555555555546,0,0,0.055555555555555546,47.6111111111111,0)" xlink:href="#B"/><use transform="matrix(0.055555555555555546,0,0,0.055555555555555546,59.777777777777764,0)" xlink:href="#z"/><use transform="matrix(0.055555555555555546,0,0,0.055555555555555546,66.38888888888887,0)" xlink:href="#E"/><use transform="matrix(0.055555555555555546,0,0,0.055555555555555546,84.16666666666664,0)" xlink:href="#w"/><use transform="matrix(0.055555555555555546,0,0,0.055555555555555546,95.27777777777776,0)" xlink:href="#H"/><use transform="matrix(0.055555555555555546,0,0,0.055555555555555546,107.44444444444443,0)" xlink:href="#v"/><use transform="matrix(0.055555555555555546,0,0,0.055555555555555546,112.99999999999999,0)" xlink:href="#A"/><use transform="matrix(0.055555555555555546,0,0,0.055555555555555546,124.11111111111109,0)" xlink:href="#y"/><use transform="matrix(0.055555555555555546,0,0,0.055555555555555546,130.7222222222222,0)" xlink:href="#w"/><use transform="matrix(0.055555555555555546,0,0,0.055555555555555546,141.83333333333331,0)" xlink:href="#w"/><use transform="matrix(0.055555555555555546,0,0,0.055555555555555546,152.94444444444443,0)" xlink:href="#z"/><use transform="matrix(0.055555555555555546,0,0,0.055555555555555546,159.55555555555554,0)" xlink:href="#G"/><use transform="matrix(0.055555555555555546,0,0,0.055555555555555546,170.66666666666666,0)" xlink:href="#H"/><use transform="matrix(0.055555555555555546,0,0,0.055555555555555546,182.83333333333331,0)" xlink:href="#I"/></g><g id="k"><use transform="matrix(0.055555555555555546,0,0,0.055555555555555546,0,0)" xlink:href="#v"/><use transform="matrix(0.055555555555555546,0,0,0.055555555555555546,5.5555555555555545,0)" xlink:href="#x"/><use transform="matrix(0.055555555555555546,0,0,0.055555555555555546,17.722222222222218,0)" xlink:href="#z"/><use transform="matrix(0.055555555555555546,0,0,0.055555555555555546,24.33333333333333,0)" xlink:href="#A"/><use transform="matrix(0.055555555555555546,0,0,0.055555555555555546,35.444444444444436,0)" xlink:href="#B"/><use transform="matrix(0.055555555555555546,0,0,0.055555555555555546,47.6111111111111,0)" xlink:href="#B"/><use transform="matrix(0.055555555555555546,0,0,0.055555555555555546,59.777777777777764,0)" xlink:href="#z"/><use transform="matrix(0.055555555555555546,0,0,0.055555555555555546,66.38888888888887,0)" xlink:href="#E"/><use transform="matrix(0.055555555555555546,0,0,0.055555555555555546,84.16666666666664,0)" xlink:href="#w"/><use transform="matrix(0.055555555555555546,0,0,0.055555555555555546,95.27777777777776,0)" xlink:href="#H"/><use transform="matrix(0.055555555555555546,0,0,0.055555555555555546,107.44444444444443,0)" xlink:href="#v"/><use transform="matrix(0.055555555555555546,0,0,0.055555555555555546,112.99999999999999,0)" xlink:href="#A"/><use transform="matrix(0.055555555555555546,0,0,0.055555555555555546,124.11111111111109,0)" xlink:href="#y"/><use transform="matrix(0.055555555555555546,0,0,0.055555555555555546,130.7222222222222,0)" xlink:href="#w"/><use transform="matrix(0.055555555555555546,0,0,0.055555555555555546,141.83333333333331,0)" xlink:href="#w"/><use transform="matrix(0.055555555555555546,0,0,0.055555555555555546,152.94444444444443,0)" xlink:href="#z"/><use transform="matrix(0.055555555555555546,0,0,0.055555555555555546,159.55555555555554,0)" xlink:href="#G"/><use transform="matrix(0.055555555555555546,0,0,0.055555555555555546,170.66666666666666,0)" xlink:href="#H"/><use transform="matrix(0.055555555555555546,0,0,0.055555555555555546,182.83333333333331,0)" xlink:href="#I"/><use transform="matrix(0.055555555555555546,0,0,0.055555555555555546,193.94444444444443,0)" xlink:href="#z"/><use transform="matrix(0.055555555555555546,0,0,0.055555555555555546,200.55555555555554,0)" xlink:href="#A"/><use transform="matrix(0.055555555555555546,0,0,0.055555555555555546,211.66666666666666,0)" xlink:href="#H"/><use transform="matrix(0.055555555555555546,0,0,0.055555555555555546,223.83333333333331,0)" xlink:href="#A"/><use transform="matrix(0.055555555555555546,0,0,0.055555555555555546,234.94444444444446,0)" xlink:href="#B"/><use transform="matrix(0.055555555555555546,0,0,0.055555555555555546,247.11111111111106,0)" xlink:href="#y"/><use transform="matrix(0.055555555555555546,0,0,0.055555555555555546,253.72222222222217,0)" xlink:href="#w"/><use transform="matrix(0.055555555555555546,0,0,0.055555555555555546,264.8333333333333,0)" xlink:href="#C"/></g><g id="l"><use transform="matrix(0.055555555555555546,0,0,0.055555555555555546,0,0)" xlink:href="#E"/><use transform="matrix(0.055555555555555546,0,0,0.055555555555555546,17.777777777777775,0)" xlink:href="#w"/><use transform="matrix(0.055555555555555546,0,0,0.055555555555555546,28.888888888888882,0)" xlink:href="#H"/><use transform="matrix(0.055555555555555546,0,0,0.055555555555555546,41.05555555555555,0)" xlink:href="#v"/><use transform="matrix(0.055555555555555546,0,0,0.055555555555555546,46.61111111111111,0)" xlink:href="#A"/><use transform="matrix(0.055555555555555546,0,0,0.055555555555555546,57.722222222222214,0)" xlink:href="#y"/><use transform="matrix(0.055555555555555546,0,0,0.055555555555555546,64.33333333333333,0)" xlink:href="#w"/><use transform="matrix(0.055555555555555546,0,0,0.055555555555555546,75.44444444444444,0)" xlink:href="#w"/><use transform="matrix(0.055555555555555546,0,0,0.055555555555555546,86.55555555555556,0)" xlink:href="#z"/><use transform="matrix(0.055555555555555546,0,0,0.055555555555555546,93.16666666666667,0)" xlink:href="#G"/><use transform="matrix(0.055555555555555546,0,0,0.055555555555555546,104.27777777777779,0)" xlink:href="#H"/><use transform="matrix(0.055555555555555546,0,0,0.055555555555555546,116.44444444444444,0)" xlink:href="#I"/></g></defs></g></svg>